<mxfile host="app.diagrams.net" modified="2023-08-02T01:23:45.598Z" agent="Mozilla/5.0 (Windows NT 10.0; Win64; x64) AppleWebKit/537.36 (KHTML, like Gecko) Chrome/113.0.0.0 Safari/537.36" version="21.6.5" etag="LA66F5hw3ZsqF8WwxmgQ" type="github">
  <diagram name="第 1 页" id="waPbzT5Kn9d_hso1ZF90">
    <mxGraphModel>
      <root>
        <mxCell id="0" />
        <mxCell id="1" parent="0" />
      </root>
    </mxGraphModel>
  </diagram>
</mxfile>
